# xmcd CD database file
#
# Track frame offsets:
#	182
#	23507
#	43190
#	68805
#	89205
#	116925
#	135727
#	154972
#	178655
#	208352
#	230562
#
# Disc length: 3340 seconds
#
# Revision: 2
# Processed by: cddbd v1.5.2PL0 Copyright (c) Steve Scherf et al.
# Submitted via: CDex 1.70beta2
#
DISCID=a70d0a0b
DTITLE=Montecarlo Nights - Private Music The Collection 2
DYEAR=1991
DGENRE=New Age
TTITLE0=Andy Summers - Charming Snakes
TTITLE1=Patrick O'Hearn - Amazon Waltz
TTITLE2=Michale Colina - Shambala
TTITLE3=Yanni - Quiet Man
TTITLE4=Tangerine Dream - Cool At Heart
TTITLE5=Shadowfax  One Winter Morning
TTITLE6=Kristen Vigard - Waiting For You
TTITLE7=Suzanne Ciani - Driving
TTITLE8=Yanni - Looking Glass
TTITLE9=Patrick O'Hearn - Delicate
TTITLE10=Suzanne Ciami - The Velocity Of Love
EXTD=YEAR: 1991
EXTT0=
EXTT1=
EXTT2=
EXTT3=
EXTT4=
EXTT5=
EXTT6=
EXTT7=
EXTT8=
EXTT9=
EXTT10=
PLAYORDER=
